<?xml version="1.0" encoding="UTF-8"?>
<svg version="1.1" xmlns="http://www.w3.org/2000/svg" width="512" height="512">
<path d="M0 0 C1.84147019 0.00942556 3.68294161 0.01861538 5.52441406 0.02758789 C27.84147964 0.1914582 50.15208896 1.15648758 72.4375 2.3125 C73.59563202 2.37099121 73.59563202 2.37099121 74.77716064 2.43066406 C76.84938718 2.53819582 78.92076414 2.65541555 80.9921875 2.77734375 C82.11093262 2.84171631 83.22967773 2.90608887 84.38232422 2.97241211 C94.5598167 4.10532301 102.80575114 8.95084519 109.4453125 16.63671875 C116.59785892 26.16845948 118.48410483 35.50912335 117.4375 47.3125 C115.61938781 57.91815446 109.8874926 65.38936386 102.07421875 72.48828125 C94.48182385 77.74109372 86.23150283 79.4103696 77.265625 81.00390625 C76.02504333 81.23528793 74.78446167 81.46666962 73.50628662 81.70506287 C69.56855766 82.43898223 65.62848231 83.15882942 61.6875 83.875 C57.73226338 84.59481147 53.77806602 85.31929393 49.8258667 86.0556488 C47.37354283 86.51255153 44.91951027 86.96039926 42.46368408 87.39808655 C41.3519281 87.60517746 40.24017212 87.81226837 39.09472656 88.02563477 C38.12037659 88.20232193 37.14602661 88.37900909 36.14215088 88.56105042 C33.18901189 89.38153896 30.98441471 90.6280578 28.4375 92.3125 C28.8172082 97.37527598 30.58442384 100.49327252 33.37890625 104.578125 C34.4375 106.3125 34.4375 106.3125 34.4375 108.3125 C93.1995274 110.33719358 93.1995274 110.33719358 144.4375 85.3125 C147.01008699 83.19507956 149.59928205 81.09826597 152.1875 79 C153.21665527 78.16166626 153.21665527 78.16166626 154.26660156 77.30639648 C158.68048421 73.71532702 163.13548622 70.18333978 167.625 66.6875 C172.1510297 63.16038418 176.57739444 59.54265846 180.9375 55.8125 C187.05422523 50.58274176 193.33697879 45.59514839 199.70117188 40.67089844 C201.43699275 39.31289684 203.14969241 37.92977446 204.859375 36.5390625 C215.32888686 28.1049505 225.70069481 23.00601038 239.4375 24.3125 C250.58954102 26.58117501 259.59652817 31.0009458 266.375 40.3125 C272.98359183 50.55970474 275.00799819 60.92943876 272.9765625 73.06640625 C268.6430557 89.35529357 253.95132681 99.2725466 241.4375 109.3125 C234.98847581 114.54703643 228.6031826 119.84797076 222.27392578 125.22607422 C217.97777727 128.87086708 213.6239945 132.44022864 209.25390625 135.99609375 C206.0996408 138.59037865 202.98573137 141.22886133 199.875 143.875 C194.47601964 148.45848881 189.02399922 152.95780651 183.4375 157.3125 C182.50421875 158.04210937 181.5709375 158.77171875 180.609375 159.5234375 C140.71131697 190.12587468 97.85100535 195.80828391 48.97764397 193.38652039 C45.49746259 193.21417511 42.01704162 193.04764908 38.53651428 192.88244629 C31.14909769 192.53080168 23.7620319 192.1721231 16.375 191.8125 C7.79724132 191.39512654 -0.78064535 190.98079182 -9.35888481 190.57341003 C-12.75417296 190.41072913 -16.14918097 190.24292373 -19.54420471 190.0748291 C-42.90678116 188.75960564 -42.90678116 188.75960564 -66.1875 190.4375 C-67.1062793 190.56294189 -68.02505859 190.68838379 -68.97167969 190.81762695 C-79.40036324 192.31242764 -89.74947254 194.316517 -100.08837891 196.33056641 C-100.76121918 196.46103867 -101.43405945 196.59151093 -102.12728882 196.72593689 C-103.96856622 197.08415428 -105.80901826 197.44660665 -107.64941406 197.80932617 C-110.5625 198.3125 -110.5625 198.3125 -113.5625 198.3125 C-113.51609375 199.42367187 -113.4696875 200.53484375 -113.421875 201.6796875 C-113.09822332 212.6186221 -113.66628803 220.8576476 -120.875 229.625 C-126.43826545 235.50922307 -132.14030991 239.78379726 -140.44314575 240.59338379 C-141.44175629 240.60703979 -142.44036682 240.6206958 -143.46923828 240.63476562 C-144.61127716 240.65398071 -145.75331604 240.6731958 -146.92996216 240.69299316 C-148.15190277 240.70149292 -149.37384338 240.70999268 -150.6328125 240.71875 C-151.90542938 240.73015015 -153.17804626 240.74155029 -154.48922729 240.7532959 C-157.18078879 240.77216569 -159.87190617 240.78597362 -162.56347656 240.79296875 C-165.97964391 240.8038911 -169.39419778 240.85186733 -172.80986214 240.90891266 C-176.10488588 240.95558446 -179.40000488 240.95909281 -182.6953125 240.96875 C-183.90510773 240.9934436 -185.11490295 241.01813721 -186.36135864 241.0435791 C-197.06794148 240.98822537 -205.42832555 237.73395255 -213.0625 230.125 C-221.21899825 221.05626181 -221.14404952 209.21209433 -221.08007812 197.72460938 C-221.0855085 196.07582484 -221.09263627 194.42704516 -221.10131836 192.77827454 C-221.11944591 188.32985945 -221.11252822 183.88181833 -221.09980202 179.43339729 C-221.08961923 174.76072363 -221.09908227 170.0880803 -221.10534668 165.41540527 C-221.11260779 157.57098692 -221.10307584 149.7267196 -221.08398438 141.88232422 C-221.06221859 132.83506144 -221.06927105 123.78815933 -221.09129 114.74090528 C-221.10948791 106.94946202 -221.11198091 99.15812684 -221.10153532 91.36666918 C-221.09532447 86.72352729 -221.09439803 82.08055449 -221.10768127 77.43742371 C-221.11930333 73.07054593 -221.11109907 68.7041296 -221.08810425 64.33730125 C-221.08285089 62.74226329 -221.08427256 61.14718596 -221.09315491 59.55216408 C-221.16060205 46.20161597 -219.42728923 36.25937762 -209.94140625 26.4140625 C-204.02249379 21.18520388 -197.70837546 19.21253589 -189.92700195 19.13549805 C-188.79514969 19.12266281 -187.66329742 19.10982758 -186.49714661 19.09660339 C-185.27734604 19.08921646 -184.05754547 19.08182953 -182.80078125 19.07421875 C-181.5404155 19.066147 -180.28004974 19.05807526 -178.98149109 19.04975891 C-176.31257462 19.03592723 -173.64378124 19.02490874 -170.97485352 19.01733398 C-167.57667693 19.00630061 -164.17916075 18.97192676 -160.78121662 18.93216228 C-157.51697128 18.89952854 -154.25266481 18.89520287 -150.98828125 18.88671875 C-149.77860184 18.86921066 -148.56892242 18.85170258 -147.32258606 18.83366394 C-138.29081855 18.85668829 -131.02499669 20.46825789 -124.25 26.75 C-123.60417969 27.348125 -122.95835938 27.94625 -122.29296875 28.5625 C-120.1957712 30.68336795 -118.31670297 32.90047091 -116.5625 35.3125 C-112.32311098 33.98702365 -108.42196278 32.37287313 -104.44140625 30.40625 C-103.27029297 29.83197266 -102.09917969 29.25769531 -100.89257812 28.66601562 C-100.27842041 28.36348877 -99.6642627 28.06096191 -99.03149414 27.74926758 C-64.37383114 10.7200125 -64.37383114 10.7200125 -47.75 5.875 C-46.6062793 5.54048828 -46.6062793 5.54048828 -45.43945312 5.19921875 C-30.37745624 1.11546395 -15.54723829 -0.16793852 0 0 Z M-74.64788818 40.38519287 C-76.76879597 41.41241567 -78.89140898 42.43606484 -81.01416016 43.45947266 C-97.32589437 51.30923628 -97.32589437 51.30923628 -113.5625 59.3125 C-113.5625 97.9225 -113.5625 136.5325 -113.5625 176.3125 C-103.9925 174.6625 -94.4225 173.0125 -84.5625 171.3125 C-71.69084402 169.16408993 -59.67616151 167.78405151 -46.6875 167.875 C-45.82562073 167.87604736 -44.96374146 167.87709473 -44.07574463 167.87817383 C-17.76955823 167.94093906 8.5359794 169.53439867 34.80029297 170.88891602 C57.6068857 172.07835721 57.6068857 172.07835721 80.4375 172.5078125 C81.43435822 172.50966553 82.43121643 172.51151855 83.45828247 172.51342773 C124.18350989 172.21154563 156.35395238 151.90995568 186.1484375 126.140625 C189.84320094 122.95056412 193.61481151 119.8603631 197.40234375 116.78125 C206.97468857 108.99525009 216.49679424 101.14956049 225.89477539 93.15380859 C229.31404063 90.24891743 232.76952272 87.39367013 236.25 84.5625 C237.57451172 83.47195313 237.57451172 83.47195313 238.92578125 82.359375 C240.52834172 81.05340037 242.14931612 79.76948936 243.79296875 78.515625 C248.80772224 74.5330521 251.66437519 70.8112303 252.4375 64.3125 C252.09153953 58.89574743 249.97602872 54.40974379 246.4375 50.3125 C242.19205494 47.2746482 237.81193586 45.56634719 232.55322266 45.94995117 C225.91298001 47.08781874 220.65906837 51.47474153 215.8125 55.875 C214.58935069 56.9542203 213.36403247 58.03098668 212.13671875 59.10546875 C211.52103027 59.64478027 210.9053418 60.1840918 210.27099609 60.73974609 C207.4612903 63.14988254 204.55215824 65.42258715 201.625 67.6875 C196.2359746 71.8684025 190.94343691 76.15294546 185.6875 80.5 C180.51847399 84.77500131 175.33980135 89.03038669 170.078125 93.19140625 C167.94276764 94.90664152 165.83505237 96.64526963 163.734375 98.40234375 C140.99900292 117.33889417 117.57660953 127.76748482 87.80078125 128.84765625 C86.12703682 128.91212196 86.12703682 128.91212196 84.41947937 128.97789001 C82.06365452 129.06781798 79.70776094 129.15596131 77.35180664 129.24243164 C73.77927387 129.37392254 70.20702527 129.51169797 66.63476562 129.65039062 C64.33595168 129.73735479 62.03712393 129.82395494 59.73828125 129.91015625 C58.15796867 129.97107201 58.15796867 129.97107201 56.54573059 130.03321838 C29.83544818 130.99953887 29.83544818 130.99953887 21.375 124.625 C13.92528108 117.47873195 7.61225014 106.11727458 6.45703125 95.828125 C6.39202185 87.45491368 8.60397887 80.44574172 14.4375 74.3125 C22.43322661 69.10624147 30.78872446 67.00349756 40.0859375 65.4609375 C41.34209869 65.23475739 42.59825989 65.00857727 43.89248657 64.77554321 C47.86296691 64.06194433 51.83700245 63.37236981 55.8125 62.6875 C59.80929547 61.99523749 63.8042656 61.29464719 67.79678345 60.57803345 C70.26958866 60.13452854 72.74480369 59.70419907 75.22250366 59.28890991 C84.02026008 57.71631678 89.10425264 55.81855184 94.4375 48.3125 C96.51544433 44.15661134 96.18778694 38.58908494 94.75390625 34.23828125 C91.99326005 28.95754309 87.98625787 26.16208596 82.4375 24.3125 C80.24033572 24.13787803 78.0387887 24.01683948 75.83666992 23.92358398 C75.1693132 23.89417725 74.50195648 23.86477051 73.81437683 23.83447266 C71.59907174 23.73809501 69.38355947 23.64814747 67.16796875 23.55859375 C65.61069203 23.49301085 64.05342593 23.42717505 62.49617004 23.36109924 C59.21687787 23.22298104 55.93747345 23.08805446 52.65795898 22.95532227 C48.52156111 22.78765076 44.38554688 22.61204701 40.24957657 22.43418121 C19.02104944 21.50966532 19.02104944 21.50966532 -2.22265625 21.15234375 C-3.04014847 21.14835068 -3.85764069 21.1443576 -4.6999054 21.14024353 C-29.90263057 21.26904622 -52.26147458 29.53869371 -74.64788818 40.38519287 Z M-196.5625 44.3125 C-198.97626192 47.93314288 -198.81796207 49.59359801 -198.82992554 53.90365601 C-198.83445665 54.57647759 -198.83898776 55.24929918 -198.84365618 55.94250929 C-198.85633793 58.20181387 -198.85467742 60.46087856 -198.85302734 62.72021484 C-198.85901026 64.33814302 -198.86581526 65.95606833 -198.87338257 67.57398987 C-198.89107419 71.9727832 -198.89573928 76.37149876 -198.89701414 80.77032423 C-198.8989118 84.44084168 -198.90626782 88.11134095 -198.91335833 91.78185141 C-198.929652 100.44116549 -198.9345264 109.10043798 -198.93310547 117.75976562 C-198.93190385 126.69562329 -198.95300744 135.63123948 -198.9845928 144.56703603 C-199.01073512 152.23591257 -199.02147362 159.90471016 -199.02019465 167.57363093 C-199.0196844 172.15524631 -199.02540212 176.73664718 -199.04655075 181.31821823 C-199.06589874 185.62748173 -199.06608137 189.93632536 -199.05151749 194.24560356 C-199.04942397 195.8270434 -199.05416255 197.40850928 -199.0662384 198.9899044 C-199.08166151 201.14955672 -199.07240434 203.30775599 -199.05697632 205.46737671 C-199.05806585 206.67563803 -199.05915539 207.88389935 -199.06027794 209.12877464 C-198.46460012 212.93865539 -197.22163506 214.57487116 -194.5625 217.3125 C-191.6372761 219.24877383 -189.34724544 219.56742191 -185.87329102 219.5871582 C-184.94875626 219.59669022 -184.0242215 219.60622223 -183.07167053 219.61604309 C-182.07993332 219.61513168 -181.08819611 219.61422028 -180.06640625 219.61328125 C-178.52786232 219.61970894 -178.52786232 219.61970894 -176.95823669 219.62626648 C-174.7904433 219.63200583 -172.62263064 219.63251296 -170.45483398 219.62817383 C-167.14077856 219.62501504 -163.82761688 219.64847446 -160.51367188 219.67382812 C-158.40625113 219.67610129 -156.29882798 219.67680454 -154.19140625 219.67578125 C-152.70683678 219.68959587 -152.70683678 219.68959587 -151.192276 219.70368958 C-146.18123553 219.67004383 -142.59971465 219.63824868 -138.5625 216.3125 C-134.82569752 212.0418686 -134.43629109 208.5155432 -134.42205811 202.95585632 C-134.41908698 202.30824162 -134.41611586 201.66062691 -134.4130547 200.99338752 C-134.40437055 198.81939049 -134.4028597 196.64544855 -134.40136719 194.47143555 C-134.39673881 192.91424441 -134.39171412 191.3570544 -134.38632202 189.79986572 C-134.37319784 185.56630488 -134.36675302 181.3327599 -134.36231136 177.09918189 C-134.35938064 174.45430586 -134.35527583 171.80943417 -134.35080719 169.16456032 C-134.33713214 160.88961866 -134.32746555 152.61468691 -134.3236053 144.33973473 C-134.31912453 134.78704688 -134.30157582 125.23450211 -134.2726047 115.68185776 C-134.25098922 108.29832214 -134.24090109 100.91482677 -134.23956418 93.53125983 C-134.23851605 89.12122938 -134.23260648 84.71133343 -134.21474457 80.30133629 C-134.1982662 76.15218448 -134.19610719 72.00326832 -134.20488358 67.85409546 C-134.20565408 66.33274009 -134.20130941 64.81137206 -134.19142532 63.2900486 C-134.17870434 61.20978401 -134.18458253 59.13035383 -134.19500732 57.0500946 C-134.19354076 55.88700114 -134.1920742 54.72390768 -134.1905632 53.52556896 C-134.69562907 49.16243128 -136.26938212 45.87501744 -139.0625 42.5 C-141.8913651 40.2604818 -144.66422535 40.17751549 -148.12231445 40.13549805 C-149.50438835 40.11624519 -149.50438835 40.11624519 -150.91438293 40.09660339 C-151.90814438 40.08921646 -152.90190582 40.08182953 -153.92578125 40.07421875 C-154.95052048 40.066147 -155.9752597 40.05807526 -157.03105164 40.04975891 C-159.20061555 40.03592558 -161.37020116 40.02520007 -163.53979492 40.01733398 C-166.85182059 40.00012047 -170.16284819 39.95622676 -173.47460938 39.91210938 C-175.583326 39.90198225 -177.6920511 39.89346621 -179.80078125 39.88671875 C-180.78847 39.86921066 -181.77615875 39.85170258 -182.79377747 39.83366394 C-188.55620387 39.85177488 -192.05532365 40.34106965 -196.5625 44.3125 Z " fill="#000000" transform="translate(229.5625,271.6875)"/>
<path d="M0 0 C0.79841309 0.22042969 1.59682617 0.44085938 2.41943359 0.66796875 C25.59676471 7.26885868 44.4930039 18.50916454 62 35 C62.72574219 35.6496875 63.45148438 36.299375 64.19921875 36.96875 C88.16588329 59.34337399 101.29167198 93.52614655 102.92578125 125.79980469 C104.05514718 162.77085334 91.24441351 197.86359061 66.2734375 225.13671875 C40.38163977 252.48994163 6.95017584 266.04846734 -30.30859375 268.12890625 C-67.37819046 269.09258727 -101.34128711 254.15805687 -128 229 C-128.73734375 228.32710937 -129.4746875 227.65421875 -130.234375 226.9609375 C-145.09653642 212.88931658 -155.40042503 194.56606263 -161.9375 175.3125 C-162.20788086 174.5189209 -162.47826172 173.7253418 -162.75683594 172.90771484 C-167.02996463 159.4898741 -168.56268329 146.2596174 -168.4375 132.25 C-168.43412628 131.51087372 -168.43075256 130.77174744 -168.42727661 130.01022339 C-168.19104941 94.13508945 -154.53240369 62.99574005 -130 37 C-129.32710937 36.26265625 -128.65421875 35.5253125 -127.9609375 34.765625 C-111.26945108 17.13641462 -89.13582926 6.38744994 -66 0 C-64.9783374 -0.28810547 -64.9783374 -0.28810547 -63.93603516 -0.58203125 C-44.71755842 -5.71348695 -19.10354581 -5.38713665 0 0 Z M-120 58 C-139.57971829 81.95181765 -149.76163637 112.22016914 -146.7890625 143.19824219 C-143.12376339 174.92251665 -127.39818597 202.5126183 -102.796875 222.6875 C-89.26839273 233.21640867 -72.77737395 240.6716167 -56 244 C-54.97519531 244.22171875 -53.95039063 244.4434375 -52.89453125 244.671875 C-23.64957537 250.15762084 6.63239828 242.93040089 31.28857422 226.68432617 C43.58956114 218.17190284 55.30228578 206.86438653 63 194 C63.5775 193.09378906 64.155 192.18757812 64.75 191.25390625 C80.38680638 165.8777959 84.86394549 135.10161523 78.49609375 106.08447266 C73.4722951 84.97561791 62.79247098 67.6857996 48 52 C47.38769531 51.32324219 46.77539062 50.64648438 46.14453125 49.94921875 C26.9230822 29.4982527 -2.39028673 18.57653536 -30.06225586 17.71655273 C-64.87054402 17.24071284 -97.02402084 31.97441878 -120 58 Z " fill="#000000" transform="translate(371,3)"/>
<path d="M0 0 C8.41355611 7.10004735 12.85289813 14.27973266 15.5625 24.9375 C15.64332983 29.22148091 14.8718964 31.59879335 12.625 35.25 C9.03713917 37.41625559 6.69082234 38.27131645 2.5 38.1875 C-1.13385126 37.0025485 -2.78218943 36.115738 -5.375 33.25 C-6.07385798 31.45727736 -6.71438579 29.64130189 -7.3125 27.8125 C-9.10962459 22.44260579 -10.49275623 20.1605684 -15.375 17.25 C-21.54517713 14.68017993 -28.12618925 14.56051226 -34.359375 17.0390625 C-40.1799819 20.09861228 -43.26678323 24.14962806 -45.375 30.25 C-46.78075826 40.33549823 -43.9401516 50.48191905 -41.7421875 60.26391602 C-41.375 62.25 -41.375 62.25 -41.375 65.25 C-40.49763184 65.22381592 -39.62026367 65.19763184 -38.71630859 65.1706543 C-35.43977243 65.08509091 -32.16443442 65.02259133 -28.88720703 64.9753418 C-27.47295318 64.95030075 -26.05882743 64.91625658 -24.64501953 64.87280273 C-11.37096648 64.47523596 -11.37096648 64.47523596 -7.4765625 67.64453125 C-4.20169756 71.70463332 -3.93863017 74.01356207 -4.375 79.25 C-7.45192308 84.78846154 -7.45192308 84.78846154 -10.375 86.25 C-12.62620742 86.33573394 -14.87999303 86.35712188 -17.1328125 86.34765625 C-18.12738968 86.34553383 -18.12738968 86.34553383 -19.14205933 86.34336853 C-21.26141863 86.33776754 -23.38067259 86.325215 -25.5 86.3125 C-26.93619639 86.30748512 -28.37239444 86.30292219 -29.80859375 86.29882812 C-33.33076345 86.28779782 -36.85287145 86.27053259 -40.375 86.25 C-40.34998413 87.4253833 -40.34998413 87.4253833 -40.32446289 88.62451172 C-40.25277866 94.424256 -40.36043619 99.71959359 -41.8125 105.375 C-42.07933594 106.45007813 -42.34617187 107.52515625 -42.62109375 108.6328125 C-43.375 111.25 -43.375 111.25 -44.375 113.25 C-43.52679688 113.26417969 -42.67859375 113.27835937 -41.8046875 113.29296875 C-32.45659364 113.67305608 -25.07964652 115.79184216 -16.375 119.25 C-8.84252709 122.04122093 -1.89249729 122.2826159 5.75 119.6875 C10.61761799 118.05979335 14.66650176 117.80292806 19.625 119.25 C22.4507197 120.94543182 23.31056639 122.16189421 24.21875 125.3046875 C24.9491719 129.47652025 25.02072751 131.46151293 23.0625 135.36328125 C17.78992812 141.60756109 7.41562251 143.27984195 -0.5 144.1875 C-10.28715228 144.60452913 -18.87027757 142.56165627 -27.9375 139.125 C-37.01726862 135.69756449 -44.51570857 135.65905784 -54.10546875 137.01171875 C-57.25958401 137.34287371 -60.39224283 137.47361428 -63.5625 137.5625 C-65.31626953 137.61857422 -65.31626953 137.61857422 -67.10546875 137.67578125 C-71.01471713 137.16669156 -72.5979914 135.98639421 -75.375 133.25 C-77.22134195 129.55731609 -77.25594461 126.18079714 -76.375 122.25 C-75.02305396 120.00712718 -73.67837958 117.96549495 -72.125 115.875 C-66.45088357 108.23412262 -63.46639423 101.45605994 -62.78125 91.91015625 C-62.70197266 90.84547119 -62.62269531 89.78078613 -62.54101562 88.68383789 C-62.48623047 87.88067139 -62.43144531 87.07750488 -62.375 86.25 C-63.55473389 86.28927612 -63.55473389 86.28927612 -64.75830078 86.3293457 C-68.33866216 86.43359476 -71.91870381 86.4984175 -75.5 86.5625 C-76.7375 86.60439453 -77.975 86.64628906 -79.25 86.68945312 C-89.53074602 86.8276352 -89.53074602 86.8276352 -93.171875 83.9765625 C-95.75587171 80.77863749 -96.39536473 79.22119162 -96.61328125 75.24609375 C-96.20261813 71.80594862 -94.6180938 69.79621458 -92.375 67.25 C-89.07324611 65.11138456 -86.40293887 65.01502103 -82.515625 65.0546875 C-81.40058594 65.06113281 -80.28554688 65.06757813 -79.13671875 65.07421875 C-77.97785156 65.09097656 -76.81898438 65.10773438 -75.625 65.125 C-73.86349609 65.13853516 -73.86349609 65.13853516 -72.06640625 65.15234375 C-69.16906464 65.17589937 -66.27213559 65.20879348 -63.375 65.25 C-63.57778564 64.46061035 -63.78057129 63.6712207 -63.98950195 62.85791016 C-68.29585433 45.90464449 -71.72364521 28.9696048 -62.625 12.9375 C-56.32212338 3.30596482 -48.45748419 -2.10907369 -37.6875 -6.125 C-25.10143469 -8.60094727 -10.69353061 -7.49776284 0 0 Z " fill="#000000" transform="translate(368.375,66.75)"/>
</svg>
