<svg xmlns="http://www.w3.org/2000/svg" xmlns:xlink="http://www.w3.org/1999/xlink" version="1.1" id="Layer_1" x="0px" y="0px" enable-background="new 0 0 352 352" xml:space="preserve" viewBox="22.75 42.69 316.09 276.43">
<path fill="#000000" opacity="1.000000" stroke="none" d=" M203.173309,210.673950   C209.316605,210.676361 214.982162,210.625443 220.646317,210.693283   C231.351837,210.821518 239.716873,215.390411 244.877808,224.752090   C246.986557,228.577255 249.025711,228.949860 252.832626,227.752640   C265.522034,223.762009 277.898895,218.585144 291.069061,216.347946   C303.842163,214.178207 316.331818,215.760941 328.025116,221.559830   C335.040405,225.038818 338.725800,231.151749 338.832886,238.873611   C338.939819,246.586121 335.392090,252.740555 328.591034,256.575714   C323.083252,259.681580 317.349884,262.387299 311.717529,265.272430   C280.442261,281.292969 249.130463,297.242889 217.910019,313.369659   C205.206619,319.931549 192.372147,320.895905 178.833847,316.183380   C149.286469,305.898376 119.651413,295.864990 90.034569,285.780518   C88.047249,285.103851 86.128342,283.863312 83.566574,284.399414   C83.455399,286.018982 83.414436,287.659454 83.219612,289.281433   C82.102936,298.578308 75.601990,305.279938 66.367653,306.363586   C57.908592,307.356232 49.388203,307.360138 40.931801,306.517334   C30.088720,305.436646 22.983826,298.187439 22.916180,287.407654   C22.695587,252.253281 22.676041,217.095490 22.930677,181.941544   C23.014324,170.393494 31.427607,162.740646 42.856171,162.666962   C49.687096,162.622910 56.519054,162.617157 63.349720,162.681931   C74.926788,162.791733 83.014053,170.348282 83.174377,181.950058   C83.240105,186.706589 84.804779,187.817062 89.253525,187.753143   C105.078705,187.525787 120.909637,187.738937 136.737518,187.642303   C145.263809,187.590256 153.233734,189.570923 160.697479,193.584717   C168.031738,197.528900 175.283813,201.625610 182.589050,205.624130   C188.847168,209.049530 195.550430,210.752808 203.173309,210.673950  M132.111755,287.240295   C148.653610,292.866943 165.261490,298.308716 181.713943,304.185669   C192.579361,308.066895 202.786163,307.415710 213.015610,302.105621   C237.991241,289.140900 263.079315,276.392792 288.120544,263.554352   C299.234070,257.856567 310.403076,252.262955 321.433533,246.408493   C328.386200,242.718338 328.434052,236.165634 321.687286,232.130676   C319.993103,231.117477 318.100616,230.280426 316.189117,229.812027   C306.330536,227.396240 296.366486,227.007172 286.581482,229.868286   C275.087524,233.229095 263.749695,237.121033 252.310043,240.672668   C249.878342,241.427612 248.431076,242.650345 247.572968,245.166763   C242.815430,259.118317 233.793854,265.890137 219.336975,265.983276   C196.517868,266.130310 173.696732,266.027283 150.876755,265.947083   C143.867645,265.922455 140.789841,263.884247 140.763931,259.682037   C140.737457,255.387192 143.596481,253.670151 150.833328,253.667892   C173.487015,253.660858 196.140823,253.701752 218.794342,253.639084   C228.043472,253.613495 234.526184,248.745056 235.703873,241.219330   C237.319977,230.891983 230.912476,223.398087 220.295212,223.148270   C208.048233,222.860138 195.640259,224.596024 183.804504,219.580231   C174.258255,215.534683 165.436646,210.176407 156.423401,205.155594   C150.799484,202.022766 144.887482,200.106033 138.365814,200.118057   C121.708946,200.148788 105.050995,200.163574 88.395569,199.987732   C84.466858,199.946259 83.222504,201.327240 83.252403,205.229446   C83.406830,225.383392 83.408585,245.539795 83.247711,265.693634   C83.218513,269.350891 84.535179,270.956116 87.928757,272.079224   C102.462563,276.889343 116.906555,281.970764 132.111755,287.240295  M69.716339,178.005554   C68.040703,175.454865 65.460449,175.036865 62.706444,175.039490   C56.382671,175.045502 50.057697,174.983017 43.735458,175.086060   C37.441273,175.188644 35.349258,177.283478 35.344109,183.528458   C35.315975,217.643829 35.316879,251.759277 35.351162,285.874634   C35.357166,291.850464 37.813988,294.405060 43.766659,294.566620   C49.420872,294.720093 55.082207,294.641174 60.740211,294.617157   C68.568504,294.583923 70.756546,292.382538 70.761353,284.469818   C70.781578,251.186493 70.783981,217.903168 70.778030,184.619843   C70.777672,182.638077 71.032127,180.613098 69.716339,178.005554  z"/>
<path fill="#000000" opacity="1.000000" stroke="none" d=" M262.320740,95.984711   C266.200867,96.888329 269.802094,97.505737 273.385010,98.215797   C277.342865,99.000160 279.450348,101.247803 279.372620,105.506470   C279.251007,112.168808 279.230957,118.837433 279.378815,125.498711   C279.478638,129.994522 277.275421,132.299850 273.088501,133.056488   C270.633057,133.500214 268.162598,133.861923 265.696991,134.248154   C260.434662,135.072449 258.413177,139.609772 261.393219,143.919739   C269.409058,155.512848 269.410156,155.513901 259.529297,165.433456   C256.942474,168.030396 254.366119,170.638153 251.750717,173.206070   C247.423767,177.454453 245.296417,177.642822 240.463104,174.245621   C238.555740,172.904968 236.721420,171.454727 234.768570,170.185593   C230.590118,167.470062 226.083664,169.507919 225.291046,174.514084   C222.921310,189.481567 223.061600,188.381424 208.599380,188.323822   C204.600693,188.307892 200.598938,188.216248 196.603973,188.337006   C192.391174,188.464371 190.042206,186.393234 189.185715,182.452423   C188.620804,179.853058 188.190826,177.222702 187.757111,174.596863   C186.894363,169.373535 182.420990,167.300308 178.098999,170.414536   C165.214890,179.698242 166.280716,178.199478 156.085922,168.106796   C153.362717,165.410873 150.698975,162.654022 147.944901,159.990341   C144.789597,156.938599 144.547958,153.707535 147.099335,150.186890   C148.662811,148.029465 150.258438,145.890961 151.722977,143.667145   C154.339081,139.694748 152.495804,135.011047 147.866135,134.357407   C131.272461,132.014618 133.838120,130.925034 133.661133,116.994186   C133.612457,113.162766 133.733688,109.328506 133.648773,105.498390   C133.555786,101.304390 135.570953,98.948868 139.617371,98.213875   C142.234482,97.738503 144.863541,97.326897 147.475235,96.824265   C152.789551,95.801506 154.705994,91.382080 151.421066,87.072594   C141.400772,73.926971 144.794067,74.295433 153.555481,65.459625   C156.253433,62.738750 159.024170,60.089119 161.689575,57.337128   C164.893494,54.029137 168.297791,53.873970 171.968719,56.464657   C174.146194,58.001366 176.276672,59.610661 178.511917,61.058163   C182.393631,63.571884 186.918686,61.514145 187.707809,56.948399   C190.169128,42.707745 190.169128,42.708263 204.613358,42.711700   C208.278870,42.712570 211.945312,42.655689 215.609680,42.719826   C221.244659,42.818447 223.332260,44.688419 224.235275,50.287914   C224.578979,52.419117 224.902557,54.553810 225.270966,56.680737   C226.172852,61.887360 230.842911,63.935452 235.091843,60.659328   C247.876633,50.801640 247.788330,54.030315 256.756104,62.820133   C259.730438,65.735435 262.710297,68.651169 265.554932,71.690887   C268.177002,74.492783 268.373840,77.590118 266.089722,80.755142   C264.919861,82.376190 263.906494,84.150093 262.533051,85.576279   C259.341919,88.889969 259.326660,92.210701 262.320740,95.984711  M228.050354,74.609169   C226.974365,74.164101 225.936325,73.535858 224.816208,73.303680   C217.562622,71.800201 213.267288,67.897530 213.288361,60.009254   C213.298325,56.283409 211.115112,55.070606 207.399994,55.165695   C200.399460,55.344872 200.218933,55.241077 199.372162,62.185825   C198.916626,65.921799 198.521652,69.721954 194.183182,70.972389   C191.105362,71.859474 188.241058,73.167107 185.457794,74.644157   C181.633011,76.673935 178.298676,76.298599 174.786423,73.738182   C167.545258,68.459381 167.464890,68.559341 161.349365,75.276062   C160.806747,75.872025 160.373199,76.567299 159.771957,77.373367   C161.501328,79.790474 163.207993,82.027832 164.755859,84.370132   C167.982758,89.253181 163.549316,104.828186 158.210480,107.299515   C157.028534,107.846642 155.661514,108.018768 154.363464,108.284203   C152.571991,108.650528 150.769638,108.970177 148.963272,109.254753   C147.751022,109.445724 146.783951,109.828995 146.229904,111.079491   C143.816406,116.526711 146.611740,121.753708 152.495026,122.601265   C155.464111,123.029007 159.148758,122.874939 160.526855,125.768730   C162.939316,130.834534 166.086044,135.784073 166.775253,141.431915   C167.250153,145.323654 163.705841,147.885239 161.761063,150.923691   C160.844482,152.355698 159.862656,153.495926 160.940475,155.406509   C164.357956,161.464569 168.005600,162.380142 173.629700,158.374634   C174.172531,157.988007 174.696503,157.574707 175.242859,157.193314   C181.800827,152.615677 197.699753,159.173813 199.153900,167.069962   C199.424500,168.539352 199.661758,170.026871 199.749161,171.515747   C200.018997,176.113419 203.212479,175.906784 206.528107,175.935287   C209.912354,175.964355 213.174652,175.980316 213.198120,171.430206   C213.236145,164.060837 217.134048,160.768478 223.819046,157.922318   C230.700821,154.992355 235.957947,154.403534 241.422470,159.792053   C245.209351,163.526276 247.522171,160.134140 250.082352,157.764633   C252.548065,155.482559 253.901077,153.574921 250.999893,150.350845   C248.632446,147.719894 245.355438,144.646545 246.416031,140.797989   C247.858292,135.564560 250.033218,130.411133 252.701996,125.679138   C254.576538,122.355392 258.871155,122.863846 262.265503,122.339729   C265.558838,121.831223 267.108643,120.460320 267.151001,116.823578   C267.237640,109.383179 267.451813,109.331161 259.814972,108.383430   C256.597626,107.984169 253.467407,107.613396 251.795837,104.294533   C247.257584,95.283974 243.172195,86.290329 252.893799,77.857788   C253.079269,77.696899 253.000366,77.231209 253.032776,76.906075   C246.226364,68.495728 246.201828,68.458389 237.107452,74.435654   C234.351044,76.247314 231.671600,76.874626 228.050354,74.609169  z"/>
<path fill="#000000" opacity="1.000000" stroke="none" d=" M224.017761,84.766869   C238.340134,93.594467 244.870483,109.112816 240.923859,124.289711   C237.027161,139.274567 223.850388,149.989120 207.954742,151.098190   C189.251129,152.403168 171.285645,136.248627 171.017090,116.848587   C170.713379,94.910248 186.132568,81.214409 204.892761,80.608505   C211.527985,80.394211 217.796768,81.485039 224.017761,84.766869  M217.870087,135.504990   C219.208130,134.524597 220.651779,133.659363 221.867065,132.545074   C229.728302,125.337379 231.679535,114.097748 226.761215,104.748260   C222.291992,96.252495 211.804153,90.924789 202.945084,92.748619   C193.478683,94.697479 187.024460,100.225182 184.434464,109.573776   C181.763031,119.216431 184.790558,127.367455 192.476822,133.545670   C200.088715,139.664093 208.470871,140.319443 217.870087,135.504990  z"/>
</svg>