<svg xmlns="http://www.w3.org/2000/svg" xmlns:xlink="http://www.w3.org/1999/xlink" version="1.1" id="Layer_1" x="0px" y="0px" enable-background="new 0 0 352 352" xml:space="preserve" viewBox="47.76 56.67 266.14 248.79">
<path fill="#000000" opacity="1.000000" stroke="none" d=" M310.877869,288.367279   C311.912018,293.971497 313.676544,299.030609 313.903870,304.243103   C312.178711,305.847626 310.257355,305.335815 308.489868,305.345337   C299.325226,305.394684 290.154083,305.167938 280.997925,305.449921   C276.612427,305.584961 274.533112,304.318512 273.435455,299.780426   C270.809631,288.924500 266.932587,278.447327 261.827179,268.470001   C261.391754,267.619080 260.791077,266.852692 260.263214,266.040924   C258.005615,266.815613 258.690216,268.458679 258.702423,269.847870   C258.785919,279.341553 258.919159,288.835083 258.941162,298.328918   C258.957458,305.363373 258.893433,305.376282 252.106201,305.377472   C216.279739,305.383728 180.453262,305.386505 144.626801,305.381592   C138.111633,305.380676 138.089432,305.332275 138.087387,298.569153   C138.081497,279.097534 138.532394,259.616882 134.781586,240.337982   C130.234909,216.968430 120.681129,196.112411 105.133080,177.931427   C88.889961,158.937653 72.840553,139.761597 60.422188,117.896851   C55.884785,109.907936 51.979275,101.631447 49.061817,92.923714   C45.816315,83.236870 48.751312,74.946327 56.579018,71.084381   C64.602722,67.125732 73.644341,69.707497 79.181503,78.131546   C88.240532,91.913643 96.903976,105.962265 107.168701,118.908661   C122.074890,137.709137 139.178864,153.748154 162.250565,162.158585   C173.276276,166.177841 184.642670,168.360367 196.393463,168.757355   C213.693649,169.341827 231.024429,169.769989 247.544418,176.021103   C268.548096,183.968826 280.918152,200.170380 289.449646,219.920639   C298.920990,241.846771 304.607361,264.986908 310.877869,288.367279  z"/>
<path fill="#000000" opacity="1.000000" stroke="none" d=" M211.965927,58.713310   C233.705612,67.223465 245.404694,83.669426 245.324112,105.154785   C245.244415,126.406693 230.500183,145.179245 209.488129,150.781616   C188.780685,156.302780 166.535034,146.990265 155.975891,128.380219   C146.291580,111.312080 147.749664,89.986610 159.631500,74.914093   C171.995300,59.230209 191.508667,53.107365 211.965927,58.713310  z"/>
</svg>