<svg xmlns="http://www.w3.org/2000/svg" xmlns:xlink="http://www.w3.org/1999/xlink" version="1.1" id="Layer_1" x="0px" y="0px" enable-background="new 0 0 352 352" xml:space="preserve" viewBox="100.29 82.81 199.78 199.72">
<path fill="#000000" opacity="1.000000" stroke="none" d=" M258.274872,261.725098   C248.246719,251.701080 238.507339,241.887756 228.668243,232.175461   C225.136429,228.689163 222.890869,224.809296 223.937134,219.714432   C224.637497,216.303925 221.975494,215.000580 220.119659,213.286469   C217.952484,211.284805 216.480957,213.571869 214.968811,214.610367   C169.119125,246.098602 108.314766,219.037430 100.889725,163.818893   C95.735977,125.491470 124.672974,88.770523 162.976288,83.469398   C199.507706,78.413506 239.029907,102.835808 244.906372,145.707687   C247.464432,164.370087 243.119888,181.757996 232.312149,197.381287   C231.278564,198.875397 228.840897,200.209015 230.768158,202.475037   C232.537247,204.555084 234.036270,207.164413 237.623260,206.517410   C242.467377,205.643646 246.276138,207.650986 249.671936,211.068314   C264.580902,226.071777 279.574371,240.991348 294.554993,255.923462   C298.383148,259.739197 301.572144,264.018616 299.342102,269.616791   C296.992432,275.515350 292.562225,279.989502 286.486053,282.023010   C282.265198,283.435608 278.308807,281.812775 275.119324,278.595734   C269.607361,273.036194 264.057983,267.513733 258.274872,261.725098  M147.266144,210.231323   C156.180161,214.421417 165.538223,216.078705 175.394150,215.817291   C206.646118,214.988388 233.039856,188.493301 233.673584,157.245041   C234.391525,121.845337 204.988205,92.249092 168.039719,95.160988   C136.811661,97.622063 111.075432,124.156174 112.603767,157.719864   C113.676460,181.277420 125.276207,199.008850 147.266144,210.231323  z"/>
<path fill="#000000" opacity="1.000000" stroke="none" d=" M148.940643,161.589722   C165.416046,159.272018 181.515518,158.880920 197.491974,161.795197   C206.437775,163.427017 213.393188,168.386841 217.156830,177.074799   C220.878159,185.665039 220.139954,189.674652 213.534897,196.247330   C211.785309,197.988327 210.131302,199.880722 207.880890,200.897339   C204.760818,199.370102 208.018997,195.347412 204.530884,193.923676   C201.946930,195.000443 202.266983,197.518356 202.334122,199.698898   C202.464584,203.935684 200.521194,206.336395 196.670700,208.022888   C181.555542,214.643234 166.470856,214.838135 151.115784,208.842682   C146.244247,206.940567 143.089035,204.388062 143.579880,198.700226   C143.720978,197.065109 143.216644,195.432175 141.998016,194.026138   C137.928009,194.897415 140.297180,198.501190 139.114197,200.485397   C131.523376,198.617554 125.744766,189.571487 127.308266,182.268280   C129.798172,170.637726 137.460297,164.419006 148.940643,161.589722  z"/>
<path fill="#000000" opacity="1.000000" stroke="none" d=" M182.887878,154.246643   C168.622269,159.549225 155.111343,153.477966 151.146301,140.295471   C147.319305,127.571991 154.782669,114.410233 167.623947,111.236847   C178.670151,108.507057 189.966064,114.447296 194.333221,125.282593   C198.765854,136.280273 194.469040,147.449112 182.887878,154.246643  z"/>
</svg>