<svg xmlns="http://www.w3.org/2000/svg" version="1.1" viewBox="7 8.61 209 207.87">
<path d="M0 0 C1.49955496 -0.00435899 2.9991077 -0.00954604 4.49865723 -0.01548767 C8.52917907 -0.02875055 12.55960645 -0.0294715 16.59014583 -0.02692437 C19.9653159 -0.02584755 23.3404674 -0.03075524 26.71563345 -0.03552979 C34.67518283 -0.04657745 42.63468497 -0.04708697 50.59423828 -0.04101562 C58.79407423 -0.03495737 66.9937394 -0.04734446 75.19354624 -0.06858569 C82.25457662 -0.08620137 89.31555259 -0.09220375 96.37660414 -0.08894795 C100.58526846 -0.08713745 104.79381045 -0.08974952 109.00245476 -0.10366249 C112.95313039 -0.11623839 116.90353837 -0.1142992 120.8542099 -0.1012516 C122.30139062 -0.09888706 123.7485902 -0.10161617 125.19574928 -0.10987473 C127.17445569 -0.12035148 129.15323847 -0.11043371 131.13194275 -0.0995636 C132.79073157 -0.09981521 132.79073157 -0.09981521 134.48303127 -0.10007191 C138.06842272 0.3345339 140.48156079 1.43926164 143.57446289 3.2746582 C145.78960957 6.30591156 145.93619424 9.33889703 146.19946289 13.0246582 C146.31161133 14.50192383 146.31161133 14.50192383 146.42602539 16.0090332 C146.47500977 16.75668945 146.52399414 17.5043457 146.57446289 18.2746582 C148.88446289 15.9646582 151.19446289 13.6546582 153.57446289 11.2746582 C157.06800127 13.02142739 158.71392052 14.18871036 161.32446289 16.8996582 C161.93805664 17.53129883 162.55165039 18.16293945 163.18383789 18.8137207 C163.64274414 19.29583008 164.10165039 19.77793945 164.57446289 20.2746582 C162.94489873 24.39708088 159.96467777 27.15889739 156.87475586 30.21728516 C156.29234634 30.80159302 155.70993683 31.38590088 155.10987854 31.98791504 C153.18365382 33.91784297 151.25032206 35.84047519 149.31665039 37.76293945 C147.97067388 39.10772302 146.62506775 40.45287737 145.27981567 41.79838562 C142.45663505 44.62000177 139.63012712 47.43822717 136.80102539 50.25390625 C133.19160146 53.84641402 129.58872064 57.44539472 125.98812675 61.04675007 C123.20701343 63.82759 120.42328963 66.60580439 117.63870621 69.38316917 C116.31058031 70.70813228 114.98304214 72.03368481 113.65612411 73.35985756 C101.69101933 85.31089857 101.69101933 85.31089857 95.41140747 90.66108704 C91.67127113 93.94642086 88.20624739 97.52165159 84.69946289 101.05200195 C83.88952881 101.86335098 83.07959473 102.67470001 82.24511719 103.51063538 C79.68585274 106.07544959 77.13010759 108.64373769 74.57446289 111.2121582 C72.82860156 112.96304103 71.08251002 114.71369434 69.33618164 116.46411133 C65.07961091 120.73164436 60.82591573 125.00202686 56.57446289 129.2746582 C55.48606515 128.38498477 54.40401681 127.48754246 53.32446289 126.5871582 C52.72118164 126.08829102 52.11790039 125.58942383 51.49633789 125.07543945 C49.26352049 122.98330771 47.43906631 120.69616751 45.57446289 118.2746582 C52.9955679 110.83030557 60.41942929 103.38871368 67.84674835 95.95056057 C71.29606379 92.49604336 74.7444498 89.04060924 78.19067383 85.58300781 C81.52118956 82.24156656 84.85419595 78.90262795 88.18888855 75.5653553 C89.45590331 74.29650363 90.72204282 73.02677732 91.98725891 71.75613213 C98.98782025 64.72674883 105.98996547 57.83961058 113.67881775 51.55448914 C115.66747331 49.92394149 117.5880864 48.23091904 119.51196289 46.5246582 C120.18291992 46.00000977 120.85387695 45.47536133 121.54516602 44.93481445 C129.70925901 37.4558779 126.91907188 31.72708743 127.57446289 19.2746582 C81.70446289 19.2746582 35.83446289 19.2746582 -11.42553711 19.2746582 C-11.42553711 75.0446582 -11.42553711 130.8146582 -11.42553711 188.2746582 C34.44446289 188.2746582 80.31446289 188.2746582 127.57446289 188.2746582 C127.24446289 154.9446582 126.91446289 121.6146582 126.57446289 87.2746582 C125.58446289 87.6046582 124.59446289 87.9346582 123.57446289 88.2746582 C123.57446289 88.9346582 123.57446289 89.5946582 123.57446289 90.2746582 C122.91446289 90.2746582 122.25446289 90.2746582 121.57446289 90.2746582 C121.57446289 90.9346582 121.57446289 91.5946582 121.57446289 92.2746582 C120.18261719 93.64649963 120.18261719 93.64649963 118.21118164 95.26904297 C112.99904512 99.70463462 108.21028349 104.51349868 103.38696289 109.36450195 C102.43454677 110.31878813 101.48190594 111.27285008 100.52905273 112.22669983 C98.04779364 114.7117379 95.56955498 117.19976617 93.09197998 119.68847656 C90.55283804 122.23793316 88.01078643 124.78448508 85.46899414 127.33129883 C80.50133407 132.30961451 75.53686603 137.29110191 70.57446289 142.2746582 C67.39359771 140.76519309 65.27576383 139.19523995 62.82446289 136.6496582 C62.21086914 136.01801758 61.59727539 135.38637695 60.96508789 134.7355957 C60.50618164 134.25348633 60.04727539 133.77137695 59.57446289 133.2746582 C61.18338696 129.27018204 63.9940655 126.57296588 67.00219727 123.58813477 C67.55523026 123.03159714 68.10826324 122.47505951 68.67805481 121.9016571 C70.5031157 120.06780995 72.33537553 118.24135577 74.16821289 116.4152832 C75.43881025 115.14333868 76.70911059 113.87109739 77.97912598 112.59857178 C80.63901155 109.93573947 83.30247696 107.2765542 85.96850586 104.61987305 C89.39199484 101.20780147 92.80639692 97.78679965 96.21819305 94.36304092 C98.83789038 91.73613266 101.46231262 89.11398676 104.08821106 86.4932785 C105.34962459 85.23320239 106.60954518 83.97162997 107.8679657 82.70856476 C109.62277165 80.94870367 111.38381876 79.1953415 113.14672852 77.44360352 C113.66938797 76.9168956 114.19204742 76.39018768 114.73054504 75.84751892 C118.34593123 72.2746582 118.34593123 72.2746582 120.57446289 72.2746582 C120.57446289 71.6146582 120.57446289 70.9546582 120.57446289 70.2746582 C122.00476074 68.86436462 122.00476074 68.86436462 124.00610352 67.21191406 C128.80325566 63.12987147 133.23070318 58.74506881 137.66821289 54.27856445 C138.91640808 53.02824684 138.91640808 53.02824684 140.18981934 51.75267029 C142.82041224 49.11652558 145.4474873 46.47690716 148.07446289 43.8371582 C149.86850144 42.03809842 151.66277004 40.239268 153.45727539 38.44067383 C157.83233414 34.05465008 162.20451801 29.66577679 166.57446289 25.2746582 C169.75532807 26.78412332 171.87316195 28.35407645 174.32446289 30.8996582 C174.93805664 31.53129883 175.55165039 32.16293945 176.18383789 32.8137207 C176.64274414 33.29583008 177.10165039 33.77793945 177.57446289 34.2746582 C176.30674445 38.01148019 174.04974946 39.48492767 170.81905365 41.57601547 C159.75769161 48.83859025 148.30449943 58.48556507 144.63223267 71.6532135 C142.9010921 81.02053033 142.67430985 90.44137606 142.71508789 99.9387207 C142.71817396 100.65747722 142.72126003 101.37623373 142.72443962 102.11677074 C142.78846765 111.08654047 143.11269196 120.04011031 143.52674627 128.99973273 C143.91312682 137.48542032 144.0993166 145.97403794 144.28540039 154.46606445 C144.47931888 163.13510462 144.68971143 171.80085847 145.03155518 180.46548462 C145.1051828 182.42409424 145.1051828 182.42409424 145.18029785 184.42227173 C145.27445557 186.85966189 145.37719128 189.2967416 145.49005127 191.7333374 C145.53065674 192.8061496 145.57126221 193.87896179 145.61309814 194.98428345 C145.67431036 196.38042594 145.67431036 196.38042594 145.73675919 197.80477333 C145.55910098 200.50844148 145.05353449 202.01766654 143.57446289 204.2746582 C136.89253314 208.58982807 129.0224911 207.68904348 121.35522461 207.64697266 C119.80567175 207.64940286 118.25612047 207.6531244 116.70657349 207.65803528 C112.51248687 207.66741505 108.3186348 207.65804428 104.12456656 207.64470315 C99.73067802 207.63336185 95.33680058 207.63749813 90.94290161 207.63945007 C83.56728293 207.64033202 76.19175634 207.62927199 68.81616211 207.61083984 C60.29154289 207.58965806 51.76705838 207.58616628 43.24241817 207.5924018 C35.03527288 207.59809743 26.82817498 207.59244846 18.62103653 207.58122826 C15.13071948 207.57658652 11.64043145 207.57570656 8.15011215 207.5778141 C4.04114392 207.57969855 -0.0676873 207.57158105 -4.1766243 207.55575371 C-5.6838779 207.5515139 -7.19114541 207.55065827 -8.6984024 207.55344391 C-10.75677742 207.55667083 -12.81474433 207.54757157 -14.87307739 207.53535461 C-16.02452303 207.53330174 -17.17596867 207.53124887 -18.36230659 207.5291338 C-22.24655362 207.20645287 -25.15218025 206.32062991 -28.17553711 203.8371582 C-31.0560484 200.23651908 -30.56587267 196.0813344 -30.55252075 191.72094727 C-30.55408074 190.94462574 -30.55564073 190.16830421 -30.557248 189.36845779 C-30.56124653 186.75904713 -30.55807276 184.14969433 -30.55493164 181.5402832 C-30.55628619 179.67281052 -30.55806642 177.80533811 -30.5602417 175.93786621 C-30.56480966 170.85948535 -30.56302907 165.78112475 -30.55986261 160.70274353 C-30.55733574 155.39500879 -30.55967747 150.08727582 -30.56124878 144.77954102 C-30.56306951 135.86514982 -30.56066668 126.9507669 -30.5559082 118.03637695 C-30.55046577 107.72137921 -30.55222849 97.40640123 -30.55773461 87.09140396 C-30.56226847 78.24465897 -30.56291494 69.39791994 -30.56029594 60.55117416 C-30.55873467 55.26323879 -30.55853531 49.97531271 -30.56183243 44.68737793 C-30.56471509 39.71670097 -30.56272813 34.74604956 -30.55693817 29.77537537 C-30.5556127 27.94799339 -30.5560011 26.12060928 -30.55820084 24.29322815 C-30.56092066 21.8049125 -30.55752092 19.31667948 -30.55252075 16.82836914 C-30.55475147 16.09987385 -30.5569822 15.37137856 -30.55928051 14.62080765 C-30.54728781 11.5581035 -30.40237688 9.20517751 -29.42553711 6.2746582 C-30.08553711 5.9446582 -30.74553711 5.6146582 -31.42553711 5.2746582 C-28.15175157 1.18530641 -24.10245852 1.29102608 -19.16433525 0.63263893 C-12.77752412 0.02111747 -6.41047234 -0.01249151 0 0 Z " fill="#111111" transform="translate(38.425537109375,8.725341796875)"/>
<path d="M0 0 C1.63483962 -0.02367853 3.2702197 -0.01944164 4.9050293 0.00622559 C5.79797699 0.00067657 6.69092468 -0.00487244 7.6109314 -0.0105896 C10.56757993 -0.02241683 13.52270632 0.00192023 16.47924805 0.02770996 C18.53043549 0.02942029 20.58162511 0.02935617 22.6328125 0.02758789 C26.93372479 0.02924288 31.23411695 0.04797403 35.53491211 0.07946777 C41.05341648 0.11914582 46.57123908 0.12351416 52.08985901 0.11600494 C56.32603219 0.11293832 60.56205151 0.12504484 64.79818726 0.14213562 C66.83319127 0.14917698 68.86821274 0.15228878 70.90322876 0.15144348 C73.74529657 0.15323722 76.58654098 0.17458263 79.4284668 0.20153809 C80.27323578 0.19860748 81.11800476 0.19567688 81.9883728 0.19265747 C87.72437638 0.27678104 87.72437638 0.27678104 89.88288879 1.95861053 C91.86219848 4.52220461 91.55835737 6.4885854 91.16674805 9.62145996 C89.88051605 11.28515053 89.88051605 11.28515053 88.16674805 12.62145996 C85.21460294 12.91778066 82.47343612 13.0311103 79.52026367 13.00964355 C78.63706955 13.01490051 77.75387543 13.02015747 76.84391785 13.02557373 C73.92009881 13.03879385 70.99682277 13.03002852 68.07299805 13.01989746 C66.04422908 13.02191762 64.01546081 13.02482856 61.98669434 13.02859497 C57.73300265 13.03302105 53.47949983 13.02657807 49.22583008 13.01257324 C43.76789568 12.99548127 38.31040381 13.00532092 32.85248566 13.02329063 C28.66266534 13.03412076 24.47295029 13.03068567 20.28312683 13.02290726 C18.27044116 13.02090312 16.257746 13.023372 14.24507141 13.03034592 C11.43420013 13.03794766 8.62404987 13.02637413 5.81323242 13.00964355 C4.97781418 13.01571625 4.14239594 13.02178894 3.28166199 13.02804565 C-2.42231825 12.96500954 -2.42231825 12.96500954 -4.51576996 11.21483803 C-6.13651205 9.25469367 -6.68316344 8.17296462 -6.83325195 5.62145996 C-5.29838221 1.412352 -4.50474761 0.73032514 0 0 Z " fill="#0A0A0A" transform="translate(50.833251953125,46.3785400390625)"/>
<path d="M0 0 C1.11132797 -0.01283524 2.22265594 -0.02567047 3.36766052 -0.03889465 C5.17545738 -0.04997505 5.17545738 -0.04997505 7.01977539 -0.0612793 C8.25280899 -0.06935104 9.48584259 -0.07742279 10.75624084 -0.08573914 C13.36807851 -0.09958734 15.97993432 -0.11030618 18.59179688 -0.11816406 C21.27399288 -0.12704146 23.95567372 -0.14795387 26.63769531 -0.1796875 C30.49438243 -0.22214165 34.3503843 -0.23850214 38.20727539 -0.2487793 C39.41044907 -0.26628738 40.61362274 -0.28379547 41.85325623 -0.30183411 C42.96773636 -0.29890854 44.08221649 -0.29598297 45.23046875 -0.29296875 C46.70367836 -0.30176811 46.70367836 -0.30176811 48.20664978 -0.31074524 C50.67993164 0.17700195 50.67993164 0.17700195 52.52052307 2.01496887 C53.67993164 4.17700195 53.67993164 4.17700195 53.67993164 7.23950195 C52.67993164 10.17700195 52.67993164 10.17700195 50.45974731 11.84008789 C47.41161873 13.30604335 45.5616958 13.53855122 42.20288086 13.50512695 C41.13182098 13.50101807 40.06076111 13.49690918 38.95724487 13.49267578 C37.81127838 13.47100342 36.66531189 13.44933105 35.48461914 13.42700195 C33.70802414 13.40512817 33.70802414 13.40512817 31.89553833 13.3828125 C29.39564507 13.34672575 26.89585781 13.30250631 24.39624023 13.25073242 C20.56220931 13.17714164 16.7293774 13.14643389 12.89477539 13.1184082 C10.46634521 13.07804881 8.03795536 13.03516626 5.60961914 12.98950195 C4.45960419 12.98402344 3.30958923 12.97854492 2.12472534 12.97290039 C1.05996979 12.94357422 -0.00478577 12.91424805 -1.10180664 12.8840332 C-2.03936798 12.86832275 -2.97692932 12.8526123 -3.94290161 12.83642578 C-6.32006836 12.17700195 -6.32006836 12.17700195 -8.18917847 9.8359375 C-9.32006836 7.17700195 -9.32006836 7.17700195 -8.63256836 3.92700195 C-6.5636042 -0.40797057 -4.48405532 0.04498113 0 0 Z " fill="#101010" transform="translate(53.320068359375,79.822998046875)"/>
<path d="M0 0 C5.62303757 4.67466337 10.79741554 9.67765667 15.9375 14.875 C16.71673828 15.65875 17.49597656 16.4425 18.29882812 17.25 C20.20154085 19.16438581 22.10186171 21.08108034 24 23 C22.36698004 26.26603993 18.83607262 26.81166787 15.5703125 28.0390625 C14.82417694 28.32478119 14.07804138 28.61049988 13.30929565 28.90487671 C11.72848603 29.50834145 10.14633942 30.10831356 8.56298828 30.70507812 C6.13869079 31.61983408 3.71954661 32.54729147 1.30078125 33.4765625 C-0.23408379 34.06066164 -1.7692311 34.6440197 -3.3046875 35.2265625 C-4.02977509 35.50464752 -4.75486267 35.78273254 -5.50192261 36.06924438 C-8.47585793 37.1837902 -10.79625317 38 -14 38 C-13.29830022 33.52050036 -11.7373935 29.47814474 -10.05859375 25.29296875 C-9.77146011 24.56757401 -9.48432648 23.84217926 -9.18849182 23.09480286 C-8.27544184 20.79077866 -7.35656475 18.48913063 -6.4375 16.1875 C-5.81536845 14.62059621 -5.19361943 13.05354049 -4.57226562 11.48632812 C-3.0526012 7.65577844 -1.52770841 3.82734827 0 0 Z " fill="#161616" transform="translate(80,131)"/>
<path d="M0 0 C0.99 0.495 0.99 0.495 2 1 C-14 17 -14 17 -16.21679688 19.21459961 C-19.19966992 22.19982755 -22.17748219 25.19004946 -25.15498352 28.18063354 C-28.49252357 31.53159155 -31.83273845 34.8798779 -35.1730957 38.22802734 C-36.92823058 39.98819499 -38.68246743 41.74925857 -40.43579102 43.51123047 C-42.98213994 46.06978578 -45.5317727 48.62502982 -48.08203125 51.1796875 C-48.85625931 51.95907684 -49.63048737 52.73846619 -50.42817688 53.54147339 C-53.84592157 56.95956503 -57.28237935 60.29578085 -60.94799805 63.44799805 C-65.78372 67.61441296 -70.25210501 72.12731377 -74.75 76.65234375 C-76.09807739 78.00254356 -76.09807739 78.00254356 -77.47338867 79.38002014 C-79.83586575 81.74711263 -82.19615112 84.11634639 -84.55535889 86.48669434 C-86.97385181 88.91550742 -89.39525946 91.34141103 -91.81640625 93.76757812 C-96.54692954 98.50907369 -101.27457973 103.25341898 -106 108 C-106 104.3223067 -104.83295758 103.47350385 -102.34146118 100.94598389 C-101.80226044 100.41442688 -101.26305969 99.88286987 -100.70751953 99.33520508 C-100.14502502 98.76905991 -99.58253052 98.20291473 -99.00299072 97.61961365 C-97.13693292 95.74543275 -95.26020801 93.88234976 -93.3828125 92.01953125 C-92.08671846 90.72395557 -90.79114178 89.42786214 -89.49606323 88.13127136 C-86.7785991 85.41389704 -84.05603081 82.70177498 -81.32958984 79.9934082 C-77.82810795 76.51462487 -74.33781777 73.02486614 -70.85104561 69.53134632 C-68.17664649 66.85361234 -65.49729693 64.18087847 -62.81631088 61.50974083 C-61.52712226 60.22441198 -60.23929214 58.93771911 -58.95282364 57.64966774 C-57.15718584 55.85366075 -55.3552156 54.0642679 -53.55126953 52.27661133 C-53.01611725 51.73898163 -52.48096497 51.20135193 -51.92959595 50.64743042 C-48.2287396 47 -48.2287396 47 -46 47 C-46 46.34 -46 45.68 -46 45 C-44.56970215 43.58970642 -44.56970215 43.58970642 -42.56835938 41.93725586 C-37.77120723 37.85521327 -33.34375971 33.47041061 -28.90625 29.00390625 C-28.07411987 28.17036118 -27.24198975 27.3368161 -26.38464355 26.47801208 C-23.75405065 23.84186738 -21.12697559 21.20224895 -18.5 18.5625 C-16.70596145 16.76344021 -14.91169285 14.9646098 -13.1171875 13.16601562 C-8.74212875 8.77999188 -4.36994488 4.39111858 0 0 Z " fill="#515151" transform="translate(205,34)"/>
</svg>